# xmcd
# 
# Track frame offsets:
#     150
#     21502
#     47211
#     69397
#     88197
#     108485
#     126703
#     148468
#     170084
#     188532
#     207849
#     226332
#     245427
#     266593
# 
# Disc length: 3810
# 
# Revision: 0
# Processed by: cddbd v1.5.2PL0 Copyright (c) Steve Scherf et al.
# Submitted via: BonkEnc v1.0.8
# 
DISCID=d90ee00e
DTITLE=Various Artist - Dinner in the City: Disc 1 New York: Piano Jazz
DYEAR=2005
DGENRE=Jazz
TTITLE0=Compilation - I've Got You Under My Skin
TTITLE1=Compilation - Love For Sale
TTITLE2=Compilation - Night And Day
TTITLE3=Compilation - Let's Do It, Let's Fall In Love
TTITLE4=Compilation - In The Still Of the Night
TTITLE5=Compilation - Begin the Beguine
TTITLE6=Compilation - Too Darn Hot
TTITLE7=Compilation - Just One of Those Things
TTITLE8=Compilation - Miss Otis Regrets
TTITLE9=Compilation - You'd Be So Nice to Come Home To
TTITLE10=Compilation - I Love Paris
TTITLE11=Compilation - Don't Fence Me In
TTITLE12=Compilation - Anything Goes
TTITLE13=Compilation - I Get A Kick Out of You
EXTD=
EXTT0=
EXTT1=
EXTT2=
EXTT3=
EXTT4=
EXTT5=
EXTT6=
EXTT7=
EXTT8=
EXTT9=
EXTT10=
EXTT11=
EXTT12=
EXTT13=
PLAYORDER=
